Coordinates
version=1
nRows=8
nColumns=63
inDegrees=yes

Units are S.I. units (second, meters, Newtons, ...)
If the header above contains a line with 'inDegrees', this indicates whether rotational values are in degrees (yes) or radians (no).

endheader
time	pelvis_tilt	pelvis_list	pelvis_rotation	pelvis_tx	pelvis_ty	pelvis_tz	hip_flexion_r	hip_adduction_r	hip_rotation_r	knee_angle_r	knee_angle_r_beta	ankle_angle_r	subtalar_angle_r	mtp_angle_r	hip_flexion_l	hip_adduction_l	hip_rotation_l	knee_angle_l	knee_angle_l_beta	ankle_angle_l	subtalar_angle_l	mtp_angle_l	L5_S1_Flex_Ext	L5_S1_Lat_Bending	L5_S1_axial_rotation	L4_L5_Flex_Ext	L4_L5_Lat_Bending	L4_L5_axial_rotation	L3_L4_Flex_Ext	L3_L4_Lat_Bending	L3_L4_axial_rotation	L2_L3_Flex_Ext	L2_L3_Lat_Bending	L2_L3_axial_rotation	L1_L2_Flex_Ext	L1_L2_Lat_Bending	L1_L2_axial_rotation	L1_T12_Flex_Ext	L1_T12_Lat_Bending	L1_T12_axial_rotation	Abs_r3	Abs_r2	Abs_r1	Abs_t1	Abs_t2	neck_flexion	neck_bending	neck_rotation	arm_flex_r	arm_add_r	arm_rot_r	elbow_flex_r	pro_sup_r	wrist_flex_r	wrist_dev_r	arm_flex_l	arm_add_l	arm_rot_l	elbow_flex_l	pro_sup_l	wrist_flex_l	wrist_dev_l
1.466667	-4.402761	-3.671931	94.900331	0.282440	0.458964	0.862706	0.983968	-3.460200	0.309850	8.998197	0.157048	31.814056	-2.726202	0.000000	0.057340	4.709515	4.836620	3.421041	0.059708	29.321686	-1.126134	0.000000	-0.100894	-1.220774	-1.188640	-0.187370	-1.623630	-1.262930	-0.165759	-2.968190	-1.262930	-0.115312	-2.968190	-1.040060	-0.093690	-2.489403	-0.965770	-0.057651	-1.890979	-0.891480	-0.720675	-13.809641	-6.610861	0.000000	0.000000	27.908349	18.809450	-22.937473	15.989880	-15.686956	-58.339759	113.475235	84.901767	-17.598449	17.032669	2.843629	-24.284687	131.657097	2.365412	3.484790	-3.353161	-8.969300
1.483333	-4.370607	-3.369150	94.546766	0.283135	0.459716	0.861150	0.472705	-3.325190	1.212337	8.775621	0.153163	31.298105	-3.693418	0.000000	-0.480272	4.626898	4.474571	3.150786	0.054992	29.292552	-0.922886	0.000000	-0.123235	-1.190308	-1.225399	-0.228860	-1.583109	-1.301987	-0.202463	-2.894115	-1.301987	-0.140846	-2.894115	-1.072224	-0.114436	-2.427276	-0.995637	-0.070417	-1.843787	-0.919049	-0.880257	-13.465001	-6.815303	0.000000	0.000000	27.931942	19.126305	-22.658299	18.634204	-17.189658	-58.652505	118.166366	85.309247	-17.493741	14.914573	2.696010	-23.749867	131.692615	2.301148	3.274316	-3.730229	-9.617319
1.500000	-4.309079	-3.009331	94.198096	0.283852	0.460616	0.859329	-0.133200	-3.158440	2.070173	8.499600	0.148346	30.757688	-4.576756	0.000000	-1.110987	4.513588	4.251380	2.865537	0.050013	29.188872	-0.911084	0.000000	-0.145118	-1.157482	-1.271138	-0.269498	-1.539452	-1.350584	-0.238414	-2.814303	-1.350584	-0.165855	-2.814303	-1.112246	-0.134756	-2.360338	-1.032800	-0.082920	-1.792940	-0.953354	-1.036561	-13.093672	-7.069688	0.000000	0.000000	27.905529	19.408819	-22.485420	21.480931	-18.926017	-58.566481	122.406931	84.592739	-17.663389	12.764382	2.590819	-23.225275	131.198212	2.400131	3.006227	-4.040658	-10.111914
1.516667	-4.215880	-2.599068	93.854952	0.284582	0.461674	0.857293	-0.820986	-2.976104	2.678917	8.176079	0.142699	30.243722	-5.092651	0.000000	-1.819154	4.367305	4.082641	2.577193	0.044981	29.031827	-0.978302	0.000000	-0.164988	-1.122199	-1.330877	-0.306400	-1.492524	-1.414057	-0.271060	-2.728514	-1.414057	-0.188565	-2.728514	-1.164517	-0.153208	-2.288388	-1.081338	-0.094274	-1.738286	-0.998158	-1.178496	-12.694537	-7.401938	0.000000	0.000000	27.792967	19.670186	-22.329544	24.501594	-20.775399	-58.059119	126.234001	83.045010	-18.227004	10.600037	2.543453	-22.719355	130.107576	2.666819	2.993682	-4.266446	-10.421705
1.533333	-4.094441	-2.141261	93.515804	0.285344	0.462891	0.855075	-1.593495	-2.773388	3.197612	7.785283	0.135879	29.710609	-5.456210	0.000000	-2.597606	4.195598	4.042802	2.288688	0.039945	28.803004	-1.223642	0.000000	-0.182300	-1.085764	-1.403232	-0.338550	-1.444066	-1.490934	-0.299501	-2.639926	-1.490934	-0.208351	-2.639926	-1.227828	-0.169284	-2.214089	-1.140126	-0.104167	-1.681848	-1.052424	-1.302154	-12.282375	-7.804356	0.000000	0.000000	27.580826	19.895444	-22.176500	27.645512	-22.601620	-57.236717	129.671719	80.589838	-18.820207	8.391885	2.569002	-22.226368	128.994627	3.019914	3.013587	-4.392544	-10.557786
1.550000	-3.925373	-1.650060	93.153380	0.286118	0.464227	0.852749	-2.420731	-2.540870	3.606403	7.345618	0.128205	29.171788	-5.597726	0.000000	-3.422240	3.982900	4.037491	2.008862	0.035061	28.547787	-1.551667	0.000000	-0.197079	-1.045385	-1.480483	-0.365995	-1.390362	-1.573013	-0.323780	-2.541749	-1.573013	-0.225241	-2.541749	-1.295423	-0.183007	-2.131749	-1.202892	-0.112611	-1.619301	-1.110362	-1.407712	-11.825603	-8.234002	0.000000	0.000000	27.298143	20.020426	-22.075397	30.849900	-24.290597	-56.172247	132.765206	78.564550	-19.334774	6.372535	2.680130	-21.725679	127.793118	3.396867	3.136864	-4.329607	-10.556363
1.566667	-3.722150	-1.137083	92.788785	0.286871	0.465645	0.850365	-3.290634	-2.291101	3.963404	6.861272	0.119752	28.621591	-5.619661	0.000000	-4.272677	3.744373	4.088264	1.743300	0.030426	28.273270	-1.957563	0.000000	-0.208109	-1.003115	-1.560203	-0.386480	-1.334142	-1.657716	-0.341903	-2.438973	-1.657716	-0.237848	-2.438973	-1.365178	-0.193250	-2.045551	-1.267665	-0.118914	-1.553825	-1.170152	-1.486505	-11.347434	-8.677382	0.000000	0.000000	26.952186	20.046217	-22.014822	34.044885	-25.768609	-54.995056	135.577275	76.891951	-19.266393	4.725913	2.884025	-21.224673	126.668861	3.781279	3.281290	-4.255188	-10.495222
1.583333	-3.479847	-0.618605	92.400101	0.287590	0.467085	0.847980	-4.169702	-2.025673	4.286147	6.353527	0.110890	28.081507	-5.515972	0.000000	-5.127256	3.479719	4.169080	1.491680	0.026035	27.998607	-2.422880	0.000000	-0.214397	-0.958182	-1.630851	-0.398156	-1.274382	-1.732779	-0.352233	-2.329724	-1.732779	-0.245034	-2.329724	-1.426994	-0.199089	-1.953925	-1.325066	-0.122506	-1.484224	-1.223138	-1.531415	-10.839147	-9.070302	0.000000	0.000000	26.573322	19.938975	-22.040531	37.119133	-27.039255	-53.698284	138.143127	75.438377	-18.625134	3.370877	3.191189	-20.709865	125.617617	4.144438	3.449610	-4.230812	-10.438625
